<svg width="48" height="41" viewBox="0 0 48 41" xmlns="http://www.w3.org/2000/svg" xmlns:xlink="http://www.w3.org/1999/xlink"><title>ac-white</title><desc>Created with Sketch.</desc><defs/><g id="Events" stroke="none" stroke-width="1" fill="none" fill-rule="evenodd"><g id="Assets" transform="translate(-791.000000, -245.000000)"><path id="Rectangle" fill="#333" d="M720-6h748v1210H720z"/><g id="Icon" transform="translate(789.000000, 239.000000)"><circle id="Oval" fill-opacity="0" fill="#d8d8d8" cx="26" cy="26" r="26"/><g id="air-conditioner" transform="translate(2.000000, 6.000000)" fill="#fff" fill-rule="nonzero"><path d="M36 13.0624687C36 12.5097188 35.5527188 12.0624375 34.9999688 12.0624375H4.99996875C4.44721875 12.0624375 3.9999375 12.5097187 3.9999375 13.0624687V17.0625C3.9999375 17.61525 4.44721875 18.0625312 4.99996875 18.0625312H34.9999688C35.5527188 18.0625312 36 17.61525 36 17.0625V13.0624687zM34.0000312 16.0624688H6V14.0625H34.0000312V16.0624688z" id="Shape"/><path d="M4.99996875 8.0625H27C27.55275 8.0625 28.0000313 7.61521875 28.0000313 7.06246875 28.0000313 6.50971875 27.55275 6.0624375 27 6.0624375H4.99996875C4.44721875 6.0624375 3.9999375 6.50971875 3.9999375 7.06246875 4.00003125 7.61521875 4.4473125 8.0625 4.99996875 8.0625z" id="Shape"/><circle id="Oval" cx="34.0000312" cy="6.06253125" r="1.99996875"/><path d="M28.0000313 25.0624688C28.0000313 24.5097188 27.55275 24.0624375 27 24.0624375 26.44725 24.0624375 25.9999688 24.5097188 25.9999688 25.0624688 25.9999688 26.8651875 26.6474063 27.8369063 27.1679063 28.6171875 27.6327188 29.3145 27.9999375 29.8652813 27.9999375 31.0624688 27.9999375 31.6152188 28.4472188 32.0625 28.9999688 32.0625 29.5527188 32.0625 30 31.6152187 30 31.0624688 30 29.25975 29.3525625 28.2880312 28.8320625 27.50775 28.3671563 26.8105313 28.0000313 26.25975 28.0000313 25.0624688z" id="Shape"/><path d="M10.9999688 24.0625312C10.4472187 24.0625312 9.9999375 24.5098125 9.9999375 25.0625625 9.9999375 26.2598437 9.63271875 26.810625 9.16790625 27.5078437 8.64740625 28.288125 7.99996875 29.2598437 7.99996875 31.0625625 7.99996875 31.6152187 8.44725 32.0625 9 32.0625 9.55275 32.0625 10.0000312 31.6152187 10.0000312 31.0624687 10.0000312 29.8651875 10.36725 29.3144062 10.8320625 28.6171875 11.3525625 27.8369062 12 26.8651875 12 25.0624687 12 24.5098125 11.5527188 24.0625312 10.9999688 24.0625312z" id="Shape"/><path d="M19.0000312 24.0625312C18.4472812 24.0625312 18 24.5098125 18 25.0625625v6C18 31.6153125 18.4472812 32.0625937 19.0000312 32.0625937 19.5527812 32.0625937 20.0000625 31.6153125 20.0000625 31.0625625v-6C19.9999687 24.5098125 19.5527812 24.0625312 19.0000312 24.0625312z" id="Shape"/><path d="M42 24.0625312H40.9999688V23.0625C40.9999688 22.50975 40.5526875 22.0624688 39.9999375 22.0624688 39.4471875 22.0624688 39 22.50975 39 23.0625V24.0625312H37.9999688C37.4472187 24.0625312 36.9999375 24.5098125 36.9999375 25.0625625 36.9999375 25.6153125 37.4472188 26.0625937 37.9999688 26.0625937H39V27.062625C39 27.615375 39.4472813 28.0626562 40.0000312 28.0626562 40.5527812 28.0626562 41.0000625 27.615375 41.0000625 27.062625V26.0625H42C42.55275 26.0625 43.0000312 25.6152187 43.0000312 25.0624688 43.0000312 24.5098125 42.55275 24.0625312 42 24.0625312z" id="Shape"/><path d="M42 32.0625H37.9999688C37.4472187 32.0625 36.9999375 32.5097813 36.9999375 33.0625312 36.9999375 33.6152812 37.4472188 34.0625625 37.9999688 34.0625625H42C42.55275 34.0625625 43.0000312 33.6152812 43.0000312 33.0625312 43.0000312 32.5097813 42.55275 32.0625 42 32.0625z" id="Shape"/><path d="M43.9999688 18.0625312H39.9999375V4.06246875C39.9999375 1.8564375 38.2060313.0624375 35.9999063.0624375H4.00003125C1.79390625.06253125.0 1.8564375.0 4.06246875V18.0624375C0 20.2684687 1.79390625 22.0624687 4.00003125 22.0624687H32.0000625V32.0625C32.0000625 36.473625 35.5889062 40.0624687 40.0000312 40.0624687 44.4111562 40.0624687 48 36.473625 48 32.0625V22.0624688C48 19.8564375 46.2060938 18.0625312 43.9999688 18.0625312zM32.5562812 20.0625H4.00003125C2.89753125 20.0625 2.0000625 19.1650312 2.0000625 18.0625312V4.06246875C1.99996875 2.95996875 2.8974375 2.0625 4.00003125 2.0625H36C37.1025 2.0625 37.9999688 2.95996875 37.9999688 4.06246875V18.0624375H36C34.5257813 18.0625312 33.2500312 18.8727188 32.5562812 20.0625zM46.0000312 32.0625c0 3.3086249999999993-2.6913750000000007 6-6 6-3.3086249999999993.0-6-2.6913750000000007-6-6V22.0624688C34.0000312 20.9599688 34.8975 20.0625 36 20.0625H43.9999688C45.1024687 20.0625 45.9999375 20.9599687 45.9999375 22.0624687V32.0625H46.0000312z" id="Shape"/></g></g></g></g></svg>