<svg width="48" height="25" viewBox="0 0 48 25" xmlns="http://www.w3.org/2000/svg" xmlns:xlink="http://www.w3.org/1999/xlink"><title>battery</title><desc>Created with Sketch.</desc><defs/><g id="Events" stroke="none" stroke-width="1" fill="none" fill-rule="evenodd"><g id="Assets" transform="translate(-146.000000, -253.000000)"><g id="Icons-/-Battery" transform="translate(144.000000, 239.000000)"><g id="Icon" fill="#d8d8d8" fill-opacity="0"><circle id="Oval" cx="26" cy="26" r="26"/></g><g id="010-battery" transform="translate(2.000000, 14.000000)" fill="#333" fill-rule="nonzero"><path d="M42.7368421.0H10.2051809C7.29975326.00328947368 4.94531253 2.35773032 4.94202305 5.26315789V6.12952305H3.15789474C1.41447368 6.13157895.00205591579 7.54440789 284217094e-22 9.28741779V14.8178454C.00205591579 16.5608553 1.41447368 17.9736842 3.15789474 17.9757401H4.94202305V18.8421053C4.94531253 21.7475328 7.29975326 24.1019737 10.2051809 24.1052632H42.7368421C45.6422697 24.1019737 47.9967105 21.7475328 48 18.8421053V5.26315789C47.9967105 2.35773032 45.6422697.00328947368 42.7368421.0zM3.15789474 15.8704769C2.57689147 15.8696546 2.10608547 15.3988486 2.10526316 14.8178454V9.28741779C2.10608547 8.70641453 2.57689147 8.23560853 3.15789474 8.23478621H4.94202305V15.8704769H3.15789474zM45.8947368 18.8421053C45.8926809 20.5855263 44.4802632 21.9979441 42.7368421 22H10.2051809C8.46175989 21.9979441 7.04934211 20.5855263 7.04728621 18.8421053V5.26315789C7.04934211 3.51973684 8.46175989 2.10731905 10.2051809 2.10526316H42.7368421C44.4802632 2.10731905 45.8926809 3.51973684 45.8947368 5.26315789V18.8421053z" id="Shape"/><path d="M19.6085526 11H17.7652138V9.15666116C17.7652138 8.57524674 17.2939967 8.10402958 16.7125822 8.10402958 16.1311678 8.10402958 15.6599506 8.57524674 15.6599506 9.15666116V11H13.8166118C13.2351974 11 12.7639802 11.4712171 12.7639802 12.0526316 12.7639802 12.6340461 13.2351974 13.1052632 13.8166118 13.1052632H15.6599506V14.948602C15.6599506 15.5300164 16.1311678 16.0012336 16.7125822 16.0012336 17.2939967 16.0012336 17.7652138 15.5300164 17.7652138 14.948602V13.1052632H19.6085526C20.1899672 13.1052632 20.6611842 12.6340461 20.6611842 12.0526316 20.6611842 11.4712171 20.1899672 11 19.6085526 11z" id="Shape"/><path d="M38.5612664 8.10402958C37.979852 8.10402958 37.5086348 8.57524674 37.5086348 9.15666116V14.948602C37.5086348 15.5300164 37.979852 16.0012336 38.5612664 16.0012336 39.1426809 16.0012336 39.613898 15.5300164 39.613898 14.948602V9.15666116C39.613898 8.57524674 39.1426809 8.10402958 38.5612664 8.10402958z" id="Shape"/></g></g></g></g></svg>