<svg width="48" height="36" viewBox="0 0 48 36" xmlns="http://www.w3.org/2000/svg" xmlns:xlink="http://www.w3.org/1999/xlink"><title>cam-white</title><desc>Created with Sketch.</desc><defs/><g id="Events" stroke="none" stroke-width="1" fill="none" fill-rule="evenodd"><g id="Assets" transform="translate(-891.000000, -247.000000)"><path id="Rectangle" d="M720-6h748v1210H720z"/><g id="Icon" transform="translate(889.000000, 239.000000)"><circle id="Oval" fill-opacity="0" fill="#d8d8d8" cx="26" cy="26" r="26"/><g id="002-cctv" transform="translate(2.000000, 8.000000)" fill="#fff" fill-rule="nonzero"><path d="M24 25.9999688c3.3086249999999993.0 6-2.6913750000000007 6-6C30 16.6913438 27.308625 13.9999688 24 13.9999688 20.691375 13.9999688 18 16.6913438 18 19.9999688c0 3.3086249999999993 2.6913750000000007 6 6 6zM24 16.0000312C26.2060312 16.0000312 28.0000313 17.7939375 28.0000313 20.0000625 28.0000313 22.2061875 26.2060312 24 24 24 21.7939687 24 19.9999688 22.2060938 19.9999688 19.9999687 19.9999688 17.7938437 21.7939687 16.0000312 24 16.0000312z" id="Shape"/><path d="M22.9999688 21C23.5527188 21 24 20.5527187 24 19.9999687 24.55275 19.9999687 25.0000312 19.5526875 25.0000312 18.9999375 25.0000312 18.4471875 24.55275 17.9999062 24 17.9999062 22.8975 17.9999062 22.0000312 18.897375 22.0000312 19.999875 22.0000313 20.5527187 22.4473125 21 22.9999688 21z" id="Shape"/><path d="M46.9999688.0H1.00003125C.44728125.0.0.44728125.0 1.00003125V8.0000625C0 10.2060938 1.79390625 12 4.00003125 12V16.0000312C4.00003125 27.0283125 12.9717188 36 24 36 35.0282812 36 43.9999687 27.0283125 43.9999687 16.0000312V12C46.2060938 12 48 10.2060938 48 7.99996875V1.00003125C48 .44728125 47.5527187.0 46.9999688.0zM42 16.0000313C42 25.924875 33.9248438 34.0000313 24 34.0000313 14.0751562 34.0000313 6 25.924875 6 16.0000313V12H18.061875C15.6114375 13.8244688 13.9999688 16.7174063 13.9999688 19.9999688 13.9999688 25.5136875 18.486375 30 24 30 29.513625 30 34.0000313 25.5136875 34.0000313 19.9999688 34.0000313 16.7174062 32.3885625 13.8244687 29.938125 12H42v4.0000313zM24 12C28.411125 12 31.9999688 15.5888437 31.9999688 19.9999687 31.9999688 24.4110937 28.411125 27.9999375 24 27.9999375 19.588875 27.9999375 16.0000312 24.4110937 16.0000312 19.9999687 16.0000313 15.5888437 19.588875 12 24 12zM46.0000312 7.99996875C46.0000312 9.10246875 45.1025625 9.9999375 44.0000625 9.9999375H4.00003125C2.89753125 9.9999375 2.0000625 9.10246875 2.0000625 7.99996875v-6H46.0000313L46.0000312 7.99996875z" id="Shape"/><circle id="Oval" cx="37.0000312" cy="15" r="1.00003125"/></g></g></g></g></svg>