<svg width="39" height="48" viewBox="0 0 39 48" xmlns="http://www.w3.org/2000/svg" xmlns:xlink="http://www.w3.org/1999/xlink"><title>fridge</title><desc>Created with Sketch.</desc><defs/><g id="Events" stroke="none" stroke-width="1" fill="none" fill-rule="evenodd"><g id="Assets" transform="translate(-351.000000, -241.000000)"><g id="Icon" transform="translate(344.000000, 239.000000)"><circle id="Oval" fill-opacity="0" fill="#d8d8d8" cx="26" cy="26" r="26"/><g id="006-fridge" transform="translate(7.000000, 2.000000)" fill="#333" fill-rule="nonzero"><path d="M29.6 5.6H28C27.5584 5.6 27.2 5.9576 27.2 6.4 27.2 6.8424 27.5584 7.2 28 7.2H29.6C30.0416 7.2 30.4 6.8424 30.4 6.4 30.4 5.9576 30.0416 5.6 29.6 5.6z" id="Shape"/><path d="M6.4 17.6H4V28.8h9.6V17.6H11.2 6.4zM9.6 19.2V21.6H8V19.2H9.6zM12 19.2v8H5.6v-8H6.4v4H11.2v-4H12z" id="Shape"/><path d="M16 16C15.5584 16 15.2 16.3576 15.2 16.8V29.6C15.2 30.0424 15.5584 30.4 16 30.4 16.4416 30.4 16.8 30.0424 16.8 29.6V16.8C16.8 16.3576 16.4416 16 16 16z" id="Shape"/><path d="M22.4 16C21.9584 16 21.6 16.3576 21.6 16.8V29.6C21.6 30.0424 21.9584 30.4 22.4 30.4 22.8416 30.4 23.2 30.0424 23.2 29.6V16.8C23.2 16.3576 22.8416 16 22.4 16z" id="Shape"/><path d="M12 36C12 36.4424 12.3584 36.8 12.8 36.8H25.6C26.0416 36.8 26.4 36.4424 26.4 36 26.4 35.5576 26.0416 35.2 25.6 35.2H12.8C12.3584 35.2 12 35.5576 12 36z" id="Shape"/><path d="M36.664.0H1.736C.7792.0.0.7792.0 1.736V32 33.6 45.656C0 46.9488 1.0512 48 2.344 48H36.056C37.348 48 38.4 46.9488 38.4 45.656V33.6 32 1.736C38.4.7792 37.6208.0 36.664.0zM1.6 1.736C1.6 1.6608 1.6608 1.6 1.736 1.6H18.4V32H1.6V1.736zM36.8 45.656C36.8 46.0664 36.4664 46.4 36.056 46.4H2.344C1.9336 46.4 1.6 46.0664 1.6 45.656V33.6H36.8V45.656zM20 32V1.6H36.664C36.7392 1.6 36.8 1.6608 36.8 1.736V32H20z" id="Shape"/></g></g></g></g></svg>