<svg width="41" height="48" viewBox="0 0 41 48" xmlns="http://www.w3.org/2000/svg" xmlns:xlink="http://www.w3.org/1999/xlink"><title>kettle</title><desc>Created with Sketch.</desc><defs/><g id="Events" stroke="none" stroke-width="1" fill="none" fill-rule="evenodd"><g id="Assets" transform="translate(-350.000000, -325.000000)"><g id="Icons-/-Teapot" transform="translate(344.000000, 323.000000)"><g id="Icon" fill="#d8d8d8" fill-opacity="0"><circle id="Oval" cx="26" cy="26" r="26"/></g><g id="hot-kettle" transform="translate(6.000000, 2.000000)" fill="#333" fill-rule="nonzero"><path d="M10.901888 5.038464C11.693696 4.05056 12.003328 2.51648 11.655168 1.307776 11.498624.764288 11.812352.196864 12.355712.04032 12.8992-.116224 13.466624.197376 13.623168.740864 14.152704 2.578688 13.701248 4.82048 12.499968 6.31936 11.405696 7.684608 11.121024 10.087424 12.377728 11.259904 12.791168 11.645696 12.813696 12.293632 12.428032 12.7072 12.226432 12.923392 11.953024 13.032704 11.678976 13.032704 11.428864 13.032704 11.178112 12.941568 10.980736 12.757504 8.835968 10.756736 9.208448 7.150976 10.901888 5.038464zM17.633024 6.227456H24.367616C24.93312 6.227456 25.391616 5.76896 25.391616 5.203456 25.391616 4.637952 24.93312 4.179456 24.367616 4.179456H17.633024C17.06752 4.179456 16.609024 4.637952 16.609024 5.203456 16.609024 5.76896 17.06752 6.227456 17.633024 6.227456zM40.467328 16.030976V24.22848C40.467328 28.32256 37.396352 31.713024 33.437184 32.217856V41.363328H34.459008C35.024512 41.363328 35.483008 41.821824 35.483008 42.387328V46.935552C35.483008 47.501056 35.024512 47.959552 34.459008 47.959552H1.092096C.526592 47.959552.068096 47.501056.068096 46.935552V42.3872C.068096 41.821696.526592 41.3632 1.092096 41.3632h.85056C1.540224 32.53248 2.409344 22.609536 5.901824 19.31456L.264704 11.586176C.13696 11.410944.068096 11.199616.068096 10.982784V9.000832C.068096 8.729216.176 8.468736.368 8.276736.560128 8.084736.82048 7.976832 1.092096 7.976832L5.330944 7.97696C5.517056 6.89472 5.969152 5.85856 6.62656 5.038464 7.418368 4.05056 7.728 2.51648 7.379584 1.307904 7.222912.764544 7.53664.196992 8.08.04032 8.623488-.116352 9.19104.197248 9.347456.740608 9.877376 2.578304 9.42592 4.820224 8.22464 6.319232 7.66912 7.012224 7.32224 7.972864 7.279872 8.904064 7.282816 8.935936 7.284352 8.968192 7.284352 9.00096 7.284352 9.0464 7.281408 9.091328 7.275648 9.135232 7.283584 9.954816 7.536896 10.732032 8.102528 11.259904 8.515968 11.645824 8.538368 12.29376 8.152576 12.7072 7.766784 13.12064 7.118976 13.143296 6.70528 12.757248 5.961216 12.062848 5.481728 11.11616 5.308544 10.02496H2.116224V10.649088L8.143488 18.91264C8.160128 18.934912 8.176128 18.957952 8.191232 18.981888 8.256384 19.084672 8.301056 19.195264 8.326144 19.308544 8.359168 19.457408 8.357632 19.6096 8.32512 19.75424 8.324992 19.75424 8.324992 19.754368 8.324992 19.754368 8.324864 19.75488 8.324736 19.755392 8.324608 19.756032 8.291456 19.902592 8.226176 20.042368 8.130432 20.163712 8.05952 20.253568 7.972608 20.332928 7.870976 20.396672 7.84768 20.411392 7.824 20.425088 7.799808 20.437632 6.545152 21.124992 5.42784 23.574912 4.7328 27.164032 3.991168 30.993792 3.736192 35.896576 3.992832 41.363456h27.39648V31.258752C31.389312 30.693248 31.847808 30.234752 32.413312 30.234752 35.725056 30.234752 38.419456 27.54048 38.419456 24.228736V16.031232C38.419456 12.71936 35.725056 10.025088 32.413312 10.025088H25.391872V32.194048C25.391872 33.980928 23.93792 35.434752 22.150784 35.434752 20.363392 35.434752 18.909824 33.980928 18.909824 32.194048V13.057024C18.909824 12.49152 19.36832 12.033024 19.933824 12.033024 20.499328 12.033024 20.957824 12.49152 20.957824 13.057024V32.193792C20.957824 32.851456 21.492864 33.386496 22.150272 33.386496 22.808704 33.386496 23.343872 32.851456 23.343872 32.193792V10.024832L14.503424 10.02496v-2.048L32.41344 7.976832C36.854144 7.976832 40.467328 11.589888 40.467328 16.030976zM33.435136 43.4112H2.116096V45.911424h31.31904V43.4112zM32.413184 26.33408C32.978688 26.33408 33.437184 25.875584 33.437184 25.31008V14.94912C33.437184 14.383616 32.978688 13.92512 32.413184 13.92512 31.84768 13.92512 31.389184 14.383616 31.389184 14.94912V25.31008C31.389184 25.875712 31.84768 26.33408 32.413184 26.33408z" id="Shape"/></g></g></g></g></svg>