<svg width="48" height="45" viewBox="0 0 48 45" xmlns="http://www.w3.org/2000/svg" xmlns:xlink="http://www.w3.org/1999/xlink"><title>key</title><desc>Created with Sketch.</desc><defs/><g id="Events" stroke="none" stroke-width="1" fill="none" fill-rule="evenodd"><g id="Assets" transform="translate(-246.000000, -243.000000)"><g id="Icon" transform="translate(244.000000, 239.000000)"><circle id="Oval" fill-opacity="0" fill="#d8d8d8" cx="26" cy="26" r="26"/><g id="smart-home" transform="translate(2.000000, 4.000000)" fill="#333" fill-rule="nonzero"><path d="M47.65623 20.3530662 24.6562797.245927964C24.28128-.0819759881 23.7187804-.0819759881 23.3437807.245927964L.343736634 20.3530662C.0292993857 20.6289428-.0820755251 21.0717404.0624868591 21.46449.209017992 21.8572396.582048943 22.1173761.999986108 22.1173761H6.0000446V43.2299042C6.0000446 43.7856161 6.44732549 44.2352941 7.00007505 44.2352941H41.0000791C41.5528286 44.2352941 42.0001095 43.7856161 42.0001095 43.2299042V22.1173761h4.9999647C47.4180114 22.1173761 47.7911361 21.8572396 47.9375735 21.46449 48.0820421 21.0717404 47.9706672 20.6289428 47.65623 20.3530662zM40.9999853 20.1066905C40.4472357 20.1066905 39.9999549 20.5563685 39.9999549 21.1120804V42.2246086H8.00001175V21.1120804C8.00001175 20.5563685 7.55273086 20.1066905 6.9999813 20.1066905H3.67382772L24.0000302 2.33719928 44.3262326 20.1066905H40.9999853z" id="Shape"/><circle id="Oval" cx="28.2352941" cy="22.5882353" r="1.88235294"/><path d="M20.3293632 23.2469715C20.3293632 24.0264484 20.4568005 24.7958313 20.7115779 25.5420172L14.4209535 31.8326711C14.2268374 32.0267882 14.1176471 32.2896226 14.1176471 32.5646865V35.6705591C14.1176471 36.2428162 14.5807111 36.7058824 15.1529654 36.7058824H18.2588235C18.533789 36.7058824 18.7967193 36.5966915 18.9908355 36.4025745L25.2814598 30.1129882C26.0276422 30.3657286 26.7959539 30.4941371 27.5764949 30.4941371 31.5720842 30.4941371 34.8235294 27.2426766 34.8235294 23.2470685 34.8235294 19.2514604 31.5720842 16 27.5764949 16 23.5809055 16 20.3293632 19.2513634 20.3293632 23.2469715zM27.5763978 18.0704524C30.4315549 18.0704524 32.7527956 20.3927716 32.7527956 23.2468744 32.7527956 26.1009773 30.4314578 28.4233935 27.5763978 28.4233935 26.8525387 28.4233935 26.1386767 28.266644 25.4552908 27.9573185 25.0590028 27.777372 24.5979769 27.8632688 24.2966117 28.1686149L17.8301181 34.6351388H16.1881868V32.9931998L22.6546804 26.5266759C22.960025 26.2223975 23.0429126 25.7613695 22.8670434 25.369059 22.5576223 24.6835346 22.3999029 23.9687957 22.3999029 23.2468744 22.3999029 20.3928686 24.7212407 18.0704524 27.5763978 18.0704524z" id="Shape"/></g></g></g></g></svg>