<svg width="53" height="52" viewBox="0 0 53 52" xmlns="http://www.w3.org/2000/svg" xmlns:xlink="http://www.w3.org/1999/xlink"><title>Prev</title><desc>Created with Sketch.</desc><defs/><g id="Events" stroke="none" stroke-width="1" fill="none" fill-rule="evenodd"><g id="Assets" transform="translate(-44.000000, -609.000000)"><g id="Elements-/-Richdata-/-Music-controls" transform="translate(44.000000, 537.000000)"><g id="Prev" transform="translate(0.000000, 72.000000)"><rect id="Rectangle-5" fill-opacity=".4" fill="#d8d8d8" x="0" y="0" width="53" height="52" rx="26"/><path d="M11.6517648 24.0134117 21.6620705 15.0041365C22.4830906 14.2652185 23.7476703 14.3317753 24.4865883 15.1527953 24.8171128 15.5200448 25 15.9966413 25 16.4907248V34.5092752c0 1.1045695000000038-.8954304999999998 2-2 2C22.5059164 36.5092752 22.02932 36.326388 21.6620705 35.9958635L11.6517648 26.9865883C10.8307447 26.2476703 10.7641879 24.9830906 11.5031059 24.1620705 11.5500184 24.1099456 11.5996398 24.0603241 11.6517648 24.0134117z" id="Path-2" fill="#8c8b8b"/><path d="M24.6517648 24.0134117l10.0103057-9.0092752C35.4830906 14.2652185 36.7476703 14.3317753 37.4865883 15.1527953 37.8171128 15.5200448 38 15.9966413 38 16.4907248V34.5092752c0 1.1045695000000038-.8954305000000033 2-2 2C35.5059164 36.5092752 35.02932 36.326388 34.6620705 35.9958635L24.6517648 26.9865883C23.8307447 26.2476703 23.7641879 24.9830906 24.5031059 24.1620705 24.5500184 24.1099456 24.5996398 24.0603241 24.6517648 24.0134117z" id="Path-2" fill="#8c8b8b"/></g></g></g></g></svg>