<svg width="48" height="29" viewBox="0 0 48 29" xmlns="http://www.w3.org/2000/svg" xmlns:xlink="http://www.w3.org/1999/xlink"><title>robot-cleaner</title><desc>Created with Sketch.</desc><defs/><g id="Events" stroke="none" stroke-width="1" fill="none" fill-rule="evenodd"><g id="Assets" transform="translate(-446.000000, -335.000000)"><g id="Icon" transform="translate(444.000000, 323.000000)"><circle id="Oval" fill-opacity="0" fill="#d8d8d8" cx="26" cy="26" r="26"/><g id="007-google-home" transform="translate(2.000000, 12.000000)" fill="#333" fill-rule="nonzero"><path d="M24 .06253125C11.6630625.06253125.0 5.40825.0 11.0625.0 21.829125 3.92671875 28.0624687 24 28.0624687 44.0732813 28.0624687 48 21.829125 48 11.0625 48 5.40825 36.3369375.06253125 24 .06253125zM24 2.0625C36.7617188 2.0625 46.0000313 7.4385 46.0000313 11.0625 46.0000313 14.4434062 37.1601563 18.0625312 24 18.0625312 10.8398438 18.0625312 1.99996875 14.4434062 1.99996875 11.0625 1.99996875 7.4385 11.2382813 2.0625 24 2.0625zm0 24C8.27840625 26.0625 3.40284375 22.2403125 2.2899375 15.1217812 6.34303125 18.3752813 15.20325 20.0625 24 20.0625 32.79675 20.0625 41.6569688 18.3752813 45.7100625 15.1217812 44.5971562 22.2403125 39.7215938 26.0625 24 26.0625z" id="Shape"/><circle id="Oval" cx="18" cy="5.0625" r="1.00003125"/><circle id="Oval" cx="22.0000312" cy="5.0625" r="1.00003125"/><circle id="Oval" cx="25.9999688" cy="5.0625" r="1.00003125"/><circle id="Oval" cx="30" cy="5.0625" r="1.00003125"/><path d="M22.0000312 23.0625C22.0000312 23.61525 22.4473125 24.0625312 23.0000625 24.0625312H25.0000312C25.5527812 24.0625312 26.0000625 23.61525 26.0000625 23.0625 26.0000625 22.50975 25.5527812 22.0624688 25.0000312 22.0624688H23.0000625C22.4473125 22.0624688 22.0000312 22.50975 22.0000312 23.0625z" id="Shape"/></g></g></g></g></svg>