<svg width="48" height="46" viewBox="0 0 48 46" xmlns="http://www.w3.org/2000/svg" xmlns:xlink="http://www.w3.org/1999/xlink"><title>router</title><desc>Created with Sketch.</desc><defs/><g id="Events" stroke="none" stroke-width="1" fill="none" fill-rule="evenodd"><g id="Assets" transform="translate(-46.000000, -326.000000)"><g id="Icons-/-Router" transform="translate(44.000000, 323.000000)"><g id="Icon" fill="#d8d8d8" fill-opacity="0"><circle id="Oval" cx="26" cy="26" r="26"/></g><g id="009-wifi" transform="translate(2.000000, 3.000000)" fill="#333" fill-rule="nonzero"><path d="M42.593402 22.4160635H15.4021437V10.5826838C17.1217984 9.97090755 18.1094099 8.1660635 17.6972439 6.38794541 17.2854955 4.60940985 15.6050946 3.42260579 13.791481 3.62931517 11.9774498 3.83602445 10.6073218 5.37026726 10.6060691 7.19599109 10.608157 8.8183463 11.6972439 10.2385858 13.264059 10.6611915v11.754872H6.80679287C3.85648666 22.4194043 1.46492205 24.8105512 1.46158129 27.7612751V38.7231347C1.46158129 39.313196 1.94056239 39.792177 2.53062361 39.792177H5.99624167V44.2888363C5.99624167 44.8788976 6.47522266 45.3578786 7.06528399 45.3578786H41.8308742C42.4209354 45.3578786 42.8999165 44.8788976 42.8999165 44.2888363V39.792177H46.8691537C47.4596325 39.792177 47.938196 39.313196 47.938196 38.7231347V27.7612751C47.9348552 24.8105512 45.5441259 22.4194043 42.593402 22.4160635zM12.7441537 7.19599109C12.7441537 6.39504449 13.3935133 5.74568488 14.1944599 5.74568488 14.9954064 5.74568488 15.6443486 6.39504449 15.6443486 7.19599109 15.6443486 7.99693769 14.9954064 8.6462973 14.1944599 8.6462973 13.3939309 8.6450446 12.7449889 7.99652002 12.7441537 7.19599109zM40.7618319 43.219794H8.13432631V39.792177H40.7618319V43.219794zM45.8005289 37.6540924H3.59966592V27.7612751C3.6013363 25.9906737 5.03619154 24.5562361 6.80679287 24.5541481H42.593402C44.3635857 24.5562361 45.798441 25.9906737 45.8005289 27.7612751V37.6540924z" id="Shape"/><path d="M10.6227729 28.0193485C10.032294 28.0193485 9.55373057 28.4979121 9.55373057 29.0883908V33.1185969C9.55373057 33.7090757 10.032294 34.1876392 10.6227729 34.1876392 11.2132517 34.1876392 11.6918152 33.7090757 11.6918152 33.1185969V29.0883908C11.6918152 28.4979121 11.2132517 28.0193485 10.6227729 28.0193485z" id="Shape"/><path d="M37.0264476 27.3390869C35.1000835 27.3390869 33.5386971 28.9004733 33.5386971 30.8264198 33.5386971 32.752784 35.1000835 34.3141704 37.0264476 34.3141704 38.9097996 34.3141704 40.4415367 32.7995546 40.5129455 30.8660913 40.5129455 30.8527282 40.5137806 30.8397829 40.5137806 30.8264198 40.5116927 28.9013084 38.951559 27.3411748 37.0264476 27.3390869zm0 4.836998900000001C36.2835468 32.1760858 35.6805401 31.5760023 35.6767817 30.8331014 35.6734409 30.0902004 36.2706013 29.4842706 37.0135023 29.4771715 37.7559855 29.4700724 38.3648386 30.0643095 38.375696 30.8072104 38.3372773 31.5764198 37.7484688 32.1765033 37.0264476 32.1765033V32.1760858z" id="Shape"/><path d="M16.8520323 28.0193485C16.2619711 28.0193485 15.78299 28.4979121 15.78299 29.0883908V33.1185969C15.78299 33.7090757 16.2619711 34.1876392 16.8520323 34.1876392 17.4425111 34.1876392 17.9210746 33.7090757 17.9210746 33.1185969V29.0883908C17.9210746 28.4979121 17.4425111 28.0193485 16.8520323 28.0193485z" id="Shape"/><path d="M7.53257244 11.4896993C7.96520039 11.4896993 8.35481629 11.2291202 8.52060134 10.8298998 8.68596882 10.4302617 8.59451556 9.97048998 8.28841871 9.66439312 6.7913419 8.15979955 6.7913419 5.72814585 8.28841871 4.22313472 8.56528399 3.95462143 8.67636412 3.55748889 8.57822945 3.18457678 8.48009468 2.81124722 8.18861356 2.51976609 7.81570156 2.422049 7.44237199 2.32391423 7.04523945 2.43457689 6.77672606 2.71144207 4.44487751 5.05122494 4.44487751 8.83672046 6.77672606 11.1765033 6.97717149 11.3773663 7.24902564 11.490117 7.53257244 11.4896993z" id="Shape"/><path d="M3.44515585 13.7568207C3.87778402 13.7568207 4.2673998 13.4962417 4.43276729 13.0970212 4.59855234 12.6973831 4.50709908 12.2376113 4.20100223 11.931932 1.44487751 9.17538976 1.44738302 4.65242202 4.2068485 1.84910913 4.47953789 1.57767255 4.58518931 1.18095768 4.48413135.81013363 4.38265593.439309577 4.09033967.151169212 3.71784524.0559577372 3.34535081-.039253951 2.95030621.0726615234 2.6834632.349109131-.896575751 3.98635852-.894070129 9.86024499 2.68930958 13.4436247 2.88933744 13.6444877 3.16160916 13.7572383 3.44515585 13.7568207z" id="Shape"/></g></g></g></g></svg>