<svg width="48" height="23" viewBox="0 0 48 23" xmlns="http://www.w3.org/2000/svg" xmlns:xlink="http://www.w3.org/1999/xlink"><title>stats</title><desc>Created with Sketch.</desc><defs/><g id="Events" stroke="none" stroke-width="1" fill="none" fill-rule="evenodd"><g id="Assets" transform="translate(-146.000000, -339.000000)"><g id="stats" transform="translate(144.000000, 323.000000)"><circle id="Oval" fill-opacity="0" fill="#d8d8d8" cx="26" cy="26" r="26"/><g id="line-chart" transform="translate(2.000000, 16.000000)" fill="#333" fill-rule="nonzero"><path d="M42.903385 947906363e-13C40.0931404 947906363e-13 37.8068637 2.31175404 37.8068637 5.15319815 37.8068637 6.18954418 38.1120193 7.15460765 38.6347683 7.96345615L33.1285603 13.5307946C32.3284994 13.002242 31.3740325 12.6936985 30.3490657 12.6936985 29.286974 12.6936985 28.2998822 13.0243282 27.4825713 13.5886169L21.9196447 7.96307699C22.4422999 7.15422849 22.7472681 6.18925981 22.7472681 5.15310336 22.7472681 2.31165925 20.4609913.0 17.6507468.0 14.8405023.0 12.5542255 2.31165925 12.5542255 5.15310336 12.5542255 6.18925981 12.8592874 7.15394411 13.3817551 7.96279261L7.87535962 13.5304154C7.07548618 13.0020524 6.12120679 12.6936985 5.0965213 12.6936985 2.28627678 12.6936985.0 15.0054525.0 17.8468966.0 20.6883408 2.28627678 23 5.0965213 23 7.90676581 23 10.1930426 20.6883408 10.1930426 17.8468966 10.1930426 16.8105506 9.88788694 15.8454871 9.36513796 15.0365439L14.871346 9.46920541C15.6714069 9.997758 16.6258738 10.3063015 17.6508405 10.3063015 18.6757135 10.3063015 19.6301804 9.997758 20.4301476 9.46920541L26.0238242 15.1257418C25.5357626 15.9161062 25.2526382 16.8484669 25.2526382 17.8468018 25.2526382 20.688246 27.538915 22.9999052 30.3491595 22.9999052 33.159404 22.9999052 35.4456808 20.688246 35.4456808 17.8468018 35.4456808 16.8106454 35.1406189 15.8458663 34.6181511 15.0371126L40.1246404 9.46948978C40.9246076 9.99785279 41.878887 10.3062067 42.9034787 10.3062067 45.7137232 10.3062067 48 7.99454748 48 5.15310336 48 2.31156446 45.7136295 947906363e-13 42.903385 947906363e-13zM5.0965213 20.8699596C3.44783702 20.8699596 2.10655839 19.51379 2.10655839 17.8468966 2.10655839 16.1799085 3.44783702 14.8237389 5.0965213 14.8237389 6.74511183 14.8237389 8.08648421 16.1799085 8.08648421 17.8468966 8.08648421 19.51379 6.74520558 20.8699596 5.0965213 20.8699596zM17.6508405 8.17626113C16.00225 8.17626113 14.6608776 6.82009149 14.6608776 5.15310336 14.6608776 3.48621002 16.0021562 2.1299456 17.6508405 2.1299456 19.2995248 2.1299456 20.6408034 3.48611523 20.6408034 5.15310336 20.6408034 6.82009149 19.2995248 8.17626113 17.6508405 8.17626113zM30.3490657 20.8699596C28.7004752 20.8699596 27.3591028 19.51379 27.3591028 17.8468018 27.3591028 16.1798137 28.7003814 14.8236441 30.3490657 14.8236441 31.9976563 14.8236441 33.3390286 16.1798137 33.3390286 17.8468018 33.3389349 19.51379 31.9976563 20.8699596 30.3490657 20.8699596zM42.903385 8.17626113C41.2547944 8.17626113 39.913422 6.82009149 39.913422 5.15310336 39.913422 3.48621002 41.2547007 2.1299456 42.903385 2.1299456 44.5519755 2.1299456 45.8933479 3.48611523 45.8933479 5.15310336 45.8933479 6.82009149 44.5519755 8.17626113 42.903385 8.17626113z" id="Shape"/><path d="M16.7094973 12.2903744C16.3222485 11.9032085 15.6945138 11.9032085 15.3072651 12.2903744L13.2903593 14.3073079C12.9031989 14.6944737 12.9031989 15.3223054 13.2904476 15.7095595 13.4840719 15.9031865 13.7377957 16 13.9915196 16 14.2452434 16 14.4990554 15.9030982 14.6925915 15.7095595L16.7094973 13.6926259C17.0968342 13.3054601 17.0968342 12.6775402 16.7094973 12.2903744z" id="Shape"/><path d="M35.7096375 6.29036413C35.3223845 5.90319725 34.694731 5.90319725 34.3073015 6.29045238L32.2903736 8.30739148C31.9032088 8.69455836 31.9032088 9.32239177 32.2903736 9.7096469 32.4840883 9.90318622 32.7378149 10 32.9915415 10 33.2453564 10 33.4989947 9.90309796 33.6926212 9.70955865l2.016928-2.0169391C36.0968022 7.30536442 36.0968022 6.67753101 35.7096375 6.29036413z" id="Shape"/></g></g></g></g></svg>