<svg width="48" height="48" viewBox="0 0 48 48" xmlns="http://www.w3.org/2000/svg" xmlns:xlink="http://www.w3.org/1999/xlink"><title>thermal</title><desc>Created with Sketch.</desc><defs/><g id="Events" stroke="none" stroke-width="1" fill="none" fill-rule="evenodd"><g id="Assets" transform="translate(-246.000000, -327.000000)"><g id="Icon" transform="translate(244.000000, 323.000000)"><circle id="Oval" fill-opacity="0" fill="#d8d8d8" cx="26" cy="26" r="26"/><g id="temperature" transform="translate(2.000000, 4.000000)" fill="#333" fill-rule="nonzero"><path d="M25.1020169 17.0241145C25.1020169 15.379012 23.7288771 14.0408163 22.0408163 14.0408163 20.3527555 14.0408163 18.9796158 15.379012 18.9796158 17.0241145V29.3253716C18.3259538 30.0498469 17.9591837 30.9801698 17.9591837 31.9406054 17.9591837 34.134355 19.7907382 35.9183673 22.0408163 35.9183673 24.2908944 35.9183673 26.122449 34.1344483 26.122449 31.9406054 26.122449 30.9801698 25.7557745 30.0498469 25.1020169 29.3253716V17.0241145zM22.0408163 33.929533C20.9147728 33.929533 20.0000478 33.0370607 20.0000478 31.9406986 20.0000478 31.3793724 20.243222 30.8569223 20.6836522 30.4694665 20.8988928 30.2810525 21.0204799 30.0130218 21.0204799 29.7313798V17.0241145C21.0204799 16.4754673 21.4788947 16.0296507 22.040912 16.0296507 22.6029293 16.0296507 23.0613441 16.4753741 23.0613441 17.0241145V29.7312866C23.0613441 30.0129286 23.1829311 30.2809593 23.3981718 30.4693732 23.838602 30.8568291 24.0817761 31.3792792 24.0817761 31.9406054 24.0815848 33.0370607 23.1667642 33.929533 22.0408163 33.929533z" id="Shape"/><path d="M43.9999502 25.9999072H39.9999004V21.9998818H43.0311332C43.4393226 21.9998818 43.8085118 21.7508822 43.9588875 21.3710078 44.111232 20.9911333 44.0174815 20.5575402 43.7205739 20.2752594L22.6893515.275413659C22.3026309-.091804553 21.6971906-.091804553 21.3104701.275413659L.310372776 20.2753531C.0134651499 20.5575402-.0802852845 20.9921646.0720591714 21.3711015.222434868 21.750976.591624079 21.9999756.99981347 21.9999756H3.99982737V40.999979C3.99982737 41.5527282 4.44711069 42.0000088 4.99986325 42.0000088H32.2840522C33.1783376 45.440535 36.282602 48 39.9999942 48 44.4121709 48 48 44.4111615 48 40.000043V29.9999326C48 27.7939046 46.2050542 25.9999072 43.9999502 25.9999072zM31.9998946 29.9999326V39.9999492H5.99980539V20.9999458C5.99980539 20.4471966 5.55252207 19.999916 4.9997695 19.999916H3.49976255L21.9999108 2.38084807 40.5293091 20.0000098H38.9999583C38.4472057 20.0000098 37.9999224 20.4472904 37.9999224 21.0000396V26.000001H35.9999444C33.7948404 25.9999072 31.9998946 27.7939046 31.9998946 29.9999326zM46.000022 39.9999492C46.000022 43.3085694 43.3086345 45.9999404 39.9999942 45.9999404 36.6913539 45.9999404 33.9999664 43.3085694 33.9999664 39.9999492V29.9999326C33.9999664 28.8974342 34.8965018 27.9999668 35.9999444 27.9999668H43.9999502C45.1034866 27.9999668 45.9999282 28.8974342 45.9999282 29.9999326V39.9999492H46.000022z" id="Shape"/><path d="M41.7959184 32H40.8163265V31.0204082C40.8163265 30.4789557 40.3781872 30.0408163 39.8367347 30.0408163 39.2952822 30.0408163 38.8571429 30.4789557 38.8571429 31.0204082V32H37.877551C37.3360986 32 36.8979592 32.4381394 36.8979592 32.9795918 36.8979592 33.5210443 37.3360986 33.9591837 37.877551 33.9591837H38.8571429V34.9387755C38.8571429 35.480228 39.2952822 35.9183673 39.8367347 35.9183673 40.3781872 35.9183673 40.8163265 35.480228 40.8163265 34.9387755V33.9591837H41.7959184C42.3373708 33.9591837 42.7755102 33.5210443 42.7755102 32.9795918 42.7755102 32.4381394 42.3373708 32 41.7959184 32z" id="Shape"/><path d="M41.7959031 39.8367347H37.8775663C37.3361054 39.8367347 36.8979592 40.2748741 36.8979592 40.8163265 36.8979592 41.357779 37.3361054 41.7959184 37.8775663 41.7959184H41.7959031C42.337364 41.7959184 42.7755102 41.357779 42.7755102 40.8163265 42.7755102 40.2748741 42.337364 39.8367347 41.7959031 39.8367347z" id="Shape"/></g></g></g></g></svg>